<mxfile host="app.diagrams.net" modified="2020-07-04T23:22:27.363Z" agent="5.0 (Macintosh; Intel Mac OS X 10_15_5) AppleWebKit/605.1.15 (KHTML, like Gecko) Version/13.1.1 Safari/605.1.15" etag="P58u6Lh42la9gVRjUMXM" version="13.3.5" type="github">
  <diagram id="O5mHzwLSyyEJ11eIGOf0" name="Page-1">
    <mxGraphModel dx="1070" dy="563" grid="1" gridSize="10" guides="1" tooltips="1" connect="1" arrows="1" fold="1" page="1" pageScale="1" pageWidth="827" pageHeight="1169" math="0" shadow="0">
      <root>
        <mxCell id="0" />
        <mxCell id="1" parent="0" />
        <mxCell id="54iCItybDwEOJGicU4Gd-1" value="«interface»&lt;br&gt;&lt;b&gt;Map&lt;/b&gt;" style="html=1;" vertex="1" parent="1">
          <mxGeometry x="304" y="40" width="110" height="50" as="geometry" />
        </mxCell>
        <mxCell id="54iCItybDwEOJGicU4Gd-2" value="HashMap" style="swimlane;fontStyle=1;align=center;verticalAlign=top;childLayout=stackLayout;horizontal=1;startSize=26;horizontalStack=0;resizeParent=1;resizeParentMax=0;resizeLast=0;collapsible=1;marginBottom=0;" vertex="1" parent="1">
          <mxGeometry x="110" y="170" width="130" height="34" as="geometry" />
        </mxCell>
        <mxCell id="54iCItybDwEOJGicU4Gd-4" value="" style="line;strokeWidth=1;fillColor=none;align=left;verticalAlign=middle;spacingTop=-1;spacingLeft=3;spacingRight=3;rotatable=0;labelPosition=right;points=[];portConstraint=eastwest;" vertex="1" parent="54iCItybDwEOJGicU4Gd-2">
          <mxGeometry y="26" width="130" height="8" as="geometry" />
        </mxCell>
        <mxCell id="54iCItybDwEOJGicU4Gd-6" value="LinkedHashMap" style="swimlane;fontStyle=1;align=center;verticalAlign=top;childLayout=stackLayout;horizontal=1;startSize=26;horizontalStack=0;resizeParent=1;resizeParentMax=0;resizeLast=0;collapsible=1;marginBottom=0;" vertex="1" parent="1">
          <mxGeometry x="270" y="170" width="130" height="34" as="geometry" />
        </mxCell>
        <mxCell id="54iCItybDwEOJGicU4Gd-7" value="" style="line;strokeWidth=1;fillColor=none;align=left;verticalAlign=middle;spacingTop=-1;spacingLeft=3;spacingRight=3;rotatable=0;labelPosition=right;points=[];portConstraint=eastwest;" vertex="1" parent="54iCItybDwEOJGicU4Gd-6">
          <mxGeometry y="26" width="130" height="8" as="geometry" />
        </mxCell>
        <mxCell id="54iCItybDwEOJGicU4Gd-10" value="«interface»&lt;br&gt;&lt;b&gt;SortedMap&lt;/b&gt;" style="html=1;" vertex="1" parent="1">
          <mxGeometry x="446" y="167.5" width="110" height="50" as="geometry" />
        </mxCell>
        <mxCell id="54iCItybDwEOJGicU4Gd-11" value="" style="endArrow=classic;html=1;exitX=0.454;exitY=-0.029;exitDx=0;exitDy=0;exitPerimeter=0;" edge="1" parent="1" source="54iCItybDwEOJGicU4Gd-2">
          <mxGeometry width="50" height="50" relative="1" as="geometry">
            <mxPoint x="304" y="140" as="sourcePoint" />
            <mxPoint x="354" y="90" as="targetPoint" />
          </mxGeometry>
        </mxCell>
        <mxCell id="54iCItybDwEOJGicU4Gd-12" value="" style="endArrow=classic;html=1;exitX=0.662;exitY=0;exitDx=0;exitDy=0;exitPerimeter=0;" edge="1" parent="1" source="54iCItybDwEOJGicU4Gd-6">
          <mxGeometry width="50" height="50" relative="1" as="geometry">
            <mxPoint x="310" y="140" as="sourcePoint" />
            <mxPoint x="360" y="90" as="targetPoint" />
          </mxGeometry>
        </mxCell>
        <mxCell id="54iCItybDwEOJGicU4Gd-13" value="" style="endArrow=classic;html=1;entryX=0.5;entryY=1;entryDx=0;entryDy=0;exitX=0.577;exitY=-0.088;exitDx=0;exitDy=0;exitPerimeter=0;" edge="1" parent="1" source="54iCItybDwEOJGicU4Gd-8" target="54iCItybDwEOJGicU4Gd-10">
          <mxGeometry width="50" height="50" relative="1" as="geometry">
            <mxPoint x="376" y="407.5" as="sourcePoint" />
            <mxPoint x="426" y="357.5" as="targetPoint" />
          </mxGeometry>
        </mxCell>
        <mxCell id="54iCItybDwEOJGicU4Gd-14" value="" style="endArrow=classic;html=1;entryX=0.582;entryY=1.06;entryDx=0;entryDy=0;entryPerimeter=0;" edge="1" parent="1" target="54iCItybDwEOJGicU4Gd-1">
          <mxGeometry width="50" height="50" relative="1" as="geometry">
            <mxPoint x="506" y="167.5" as="sourcePoint" />
            <mxPoint x="400" y="110" as="targetPoint" />
            <Array as="points">
              <mxPoint x="470" y="141" />
            </Array>
          </mxGeometry>
        </mxCell>
        <mxCell id="54iCItybDwEOJGicU4Gd-8" value="TreeMap" style="swimlane;fontStyle=1;align=center;verticalAlign=top;childLayout=stackLayout;horizontal=1;startSize=26;horizontalStack=0;resizeParent=1;resizeParentMax=0;resizeLast=0;collapsible=1;marginBottom=0;" vertex="1" parent="1">
          <mxGeometry x="426" y="257.5" width="130" height="34" as="geometry" />
        </mxCell>
        <mxCell id="54iCItybDwEOJGicU4Gd-9" value="" style="line;strokeWidth=1;fillColor=none;align=left;verticalAlign=middle;spacingTop=-1;spacingLeft=3;spacingRight=3;rotatable=0;labelPosition=right;points=[];portConstraint=eastwest;" vertex="1" parent="54iCItybDwEOJGicU4Gd-8">
          <mxGeometry y="26" width="130" height="8" as="geometry" />
        </mxCell>
      </root>
    </mxGraphModel>
  </diagram>
</mxfile>
